<?xml version="1.0" encoding="UTF-8"?>
<svg xmlns="http://www.w3.org/2000/svg" xmlns:xlink="http://www.w3.org/1999/xlink" width="26px" height="26px" viewBox="0 0 26 26" version="1.1">
<g id="surface1">
<path style=" stroke:none;fill-rule:nonzero;fill:rgb(0%,0%,0%);fill-opacity:1;" d="M 8.785156 4.925781 C 6.96875 5.125 5.414062 6.078125 4.382812 7.640625 C 3.390625 9.136719 3.148438 11.238281 3.761719 12.980469 C 3.847656 13.226562 3.980469 13.542969 4.046875 13.683594 C 4.585938 14.761719 5.617188 15.796875 6.679688 16.335938 C 7.972656 16.996094 9.703125 17.175781 11.238281 16.808594 C 13.355469 16.304688 14.867188 14.707031 15.210938 12.617188 C 15.269531 12.25 15.285156 11.511719 15.285156 8.796875 C 15.285156 5.5 15.285156 5.433594 15.386719 5.332031 C 15.488281 5.230469 15.554688 5.230469 18.613281 5.230469 L 21.734375 5.230469 L 21.734375 6.347656 L 19.375 6.347656 C 16.835938 6.347656 16.761719 6.351562 16.585938 6.605469 C 16.515625 6.714844 16.503906 6.953125 16.503906 8.617188 L 16.503906 10.511719 L 21.226562 10.511719 L 21.226562 11.652344 L 19.078125 11.652344 C 17.285156 11.652344 16.90625 11.664062 16.789062 11.730469 C 16.503906 11.878906 16.503906 11.886719 16.503906 14.289062 L 16.503906 16.5 L 16.390625 16.574219 C 16.304688 16.636719 16.144531 16.65625 15.707031 16.65625 L 15.132812 16.65625 L 15.132812 16.984375 L 15.730469 16.976562 C 16.457031 16.960938 16.492188 16.949219 16.683594 16.757812 L 16.835938 16.601562 L 16.847656 14.320312 L 16.863281 12.046875 L 16.976562 12.015625 C 17.039062 12 18.046875 11.984375 19.226562 11.984375 C 21.332031 11.984375 21.363281 11.984375 21.460938 11.878906 C 21.546875 11.78125 21.558594 11.691406 21.558594 11.09375 C 21.558594 10.507812 21.546875 10.410156 21.460938 10.3125 C 21.363281 10.210938 21.324219 10.207031 19.125 10.195312 L 16.886719 10.179688 L 16.886719 6.726562 L 19.34375 6.714844 C 22.339844 6.699219 22.039062 6.800781 22.039062 5.804688 C 22.039062 5.148438 22.035156 5.117188 21.914062 5 L 21.789062 4.875 L 18.652344 4.875 C 15.1875 4.875 15.304688 4.863281 15.0625 5.195312 C 14.957031 5.335938 14.957031 5.386719 14.949219 8.699219 C 14.945312 10.546875 14.925781 12.203125 14.910156 12.375 C 14.757812 13.859375 13.722656 15.351562 12.371094 16.03125 C 11.476562 16.484375 10.785156 16.625 9.574219 16.625 C 8.597656 16.621094 8.273438 16.574219 7.527344 16.320312 C 6.132812 15.859375 4.871094 14.6875 4.261719 13.308594 C 3.722656 12.097656 3.621094 10.585938 3.992188 9.308594 C 4.40625 7.84375 5.515625 6.511719 6.882812 5.828125 C 7.730469 5.402344 8.414062 5.253906 9.546875 5.253906 C 10.472656 5.253906 10.871094 5.328125 11.683594 5.640625 C 12.140625 5.820312 13.019531 6.382812 13.320312 6.6875 L 13.511719 6.886719 L 13.121094 7.261719 C 12.851562 7.515625 12.710938 7.617188 12.671875 7.585938 C 12.632812 7.5625 12.472656 7.433594 12.308594 7.296875 C 11.472656 6.621094 10.40625 6.300781 9.222656 6.363281 C 6.601562 6.5 4.785156 8.59375 4.941406 11.292969 C 5.03125 12.902344 5.976562 14.339844 7.394531 15.03125 C 7.617188 15.144531 7.984375 15.28125 8.207031 15.335938 C 10.398438 15.898438 12.503906 15.078125 13.40625 13.304688 C 13.558594 13.003906 13.746094 12.445312 13.789062 12.160156 C 13.824219 11.957031 13.8125 11.921875 13.671875 11.78125 L 13.511719 11.625 L 11.667969 11.628906 L 9.828125 11.632812 L 9.8125 11.074219 L 9.796875 10.511719 L 11.816406 10.5 L 13.839844 10.484375 L 13.851562 10.320312 L 13.867188 10.152344 L 11.78125 10.167969 L 9.6875 10.179688 L 9.566406 10.324219 C 9.449219 10.457031 9.445312 10.507812 9.445312 11.089844 C 9.445312 11.648438 9.457031 11.730469 9.550781 11.851562 L 9.652344 11.984375 L 11.558594 11.984375 C 13.269531 11.984375 13.457031 11.996094 13.457031 12.066406 C 13.457031 12.242188 13.289062 12.78125 13.140625 13.070312 C 12.746094 13.863281 12.25 14.359375 11.453125 14.75 C 10.753906 15.09375 10.464844 15.152344 9.574219 15.148438 C 8.445312 15.148438 7.753906 14.945312 6.976562 14.390625 C 6.296875 13.910156 5.765625 13.183594 5.472656 12.328125 C 5.316406 11.871094 5.3125 11.832031 5.308594 10.96875 C 5.308594 10.246094 5.320312 10.019531 5.402344 9.75 C 5.734375 8.601562 6.527344 7.636719 7.542969 7.140625 C 8.226562 6.804688 8.566406 6.734375 9.496094 6.726562 C 10.09375 6.726562 10.363281 6.75 10.613281 6.820312 C 11.125 6.957031 11.714844 7.265625 12.183594 7.636719 C 12.421875 7.820312 12.660156 7.972656 12.722656 7.972656 C 12.792969 7.972656 13.011719 7.820312 13.269531 7.589844 C 13.996094 6.957031 14.015625 6.875 13.546875 6.429688 C 12.832031 5.753906 11.796875 5.21875 10.765625 5 C 10.324219 4.910156 9.292969 4.871094 8.785156 4.925781 Z M 8.785156 4.925781 "/>
<path style=" stroke:none;fill-rule:nonzero;fill:rgb(0%,0%,0%);fill-opacity:1;" d="M 15.265625 18.394531 C 15.144531 18.566406 15.164062 18.621094 15.335938 18.597656 C 15.433594 18.582031 15.527344 18.519531 15.59375 18.429688 L 15.695312 18.28125 L 15.519531 18.28125 C 15.390625 18.28125 15.320312 18.3125 15.265625 18.394531 Z M 15.265625 18.394531 "/>
<path style=" stroke:none;fill-rule:nonzero;fill:rgb(0%,0%,0%);fill-opacity:1;" d="M 4.242188 18.777344 C 4.226562 18.792969 4.214844 19.179688 4.214844 19.636719 L 4.214844 20.464844 L 4.570312 20.464844 L 4.570312 18.800781 L 4.417969 18.777344 C 4.332031 18.761719 4.253906 18.769531 4.242188 18.777344 Z M 4.242188 18.777344 "/>
<path style=" stroke:none;fill-rule:nonzero;fill:rgb(0%,0%,0%);fill-opacity:1;" d="M 5.054688 18.777344 C 5.039062 18.792969 5.027344 19.179688 5.027344 19.636719 L 5.027344 20.464844 L 5.332031 20.464844 L 5.332031 19.957031 C 5.332031 19.675781 5.347656 19.449219 5.371094 19.449219 C 5.394531 19.449219 5.566406 19.675781 5.757812 19.957031 C 6.0625 20.398438 6.125 20.464844 6.25 20.464844 L 6.398438 20.464844 L 6.398438 18.800781 L 6.273438 18.777344 C 6.207031 18.761719 6.132812 18.761719 6.121094 18.777344 C 6.105469 18.792969 6.09375 19.03125 6.09375 19.308594 C 6.09375 19.625 6.074219 19.800781 6.042969 19.777344 C 6.019531 19.765625 5.84375 19.535156 5.664062 19.277344 C 5.429688 18.9375 5.296875 18.792969 5.207031 18.777344 C 5.140625 18.761719 5.066406 18.761719 5.054688 18.777344 Z M 5.054688 18.777344 "/>
<path style=" stroke:none;fill-rule:nonzero;fill:rgb(0%,0%,0%);fill-opacity:1;" d="M 7.175781 18.773438 L 6.957031 18.792969 L 6.957031 20.464844 L 7.109375 20.464844 C 7.257812 20.464844 7.257812 20.460938 7.273438 20.144531 L 7.289062 19.828125 L 7.683594 19.816406 L 8.078125 19.800781 L 8.0625 19.664062 C 8.050781 19.53125 8.039062 19.523438 7.667969 19.5 L 7.289062 19.472656 L 7.289062 19.117188 L 7.683594 19.105469 L 8.078125 19.089844 L 8.0625 18.925781 L 8.050781 18.761719 L 7.71875 18.757812 C 7.535156 18.757812 7.292969 18.761719 7.175781 18.773438 Z M 7.175781 18.773438 "/>
<path style=" stroke:none;fill-rule:nonzero;fill:rgb(0%,0%,0%);fill-opacity:1;" d="M 8.921875 18.84375 C 8.820312 18.902344 8.671875 19.03125 8.601562 19.144531 C 8.484375 19.320312 8.46875 19.382812 8.492188 19.671875 C 8.507812 19.925781 8.542969 20.03125 8.648438 20.175781 C 9.09375 20.765625 10.121094 20.515625 10.242188 19.789062 C 10.289062 19.511719 10.21875 19.261719 10.039062 19.058594 C 9.753906 18.734375 9.304688 18.648438 8.921875 18.84375 Z M 9.566406 19.113281 C 9.796875 19.210938 9.902344 19.378906 9.902344 19.640625 C 9.902344 19.960938 9.699219 20.160156 9.371094 20.160156 C 9.078125 20.160156 8.964844 20.097656 8.863281 19.90625 C 8.710938 19.605469 8.820312 19.242188 9.105469 19.117188 C 9.3125 19.027344 9.359375 19.027344 9.566406 19.113281 Z M 9.566406 19.113281 "/>
<path style=" stroke:none;fill-rule:nonzero;fill:rgb(0%,0%,0%);fill-opacity:1;" d="M 10.683594 18.785156 C 10.652344 18.8125 10.660156 20.445312 10.691406 20.476562 C 10.703125 20.484375 10.78125 20.488281 10.863281 20.476562 C 11.003906 20.453125 11.007812 20.445312 11 20.210938 C 10.988281 19.753906 11.199219 19.742188 11.464844 20.183594 C 11.617188 20.4375 11.648438 20.464844 11.8125 20.464844 L 11.996094 20.464844 L 11.878906 20.273438 C 11.816406 20.171875 11.734375 20.039062 11.699219 19.988281 C 11.644531 19.902344 11.65625 19.867188 11.78125 19.71875 C 11.902344 19.582031 11.933594 19.5 11.933594 19.316406 C 11.933594 19.125 11.910156 19.058594 11.777344 18.9375 C 11.675781 18.84375 11.558594 18.789062 11.457031 18.785156 C 10.816406 18.761719 10.703125 18.761719 10.683594 18.785156 Z M 11.605469 19.265625 C 11.644531 19.386719 11.632812 19.421875 11.53125 19.503906 C 11.460938 19.5625 11.335938 19.601562 11.21875 19.601562 L 11.019531 19.601562 L 11.019531 19.089844 L 11.285156 19.105469 C 11.527344 19.117188 11.558594 19.132812 11.605469 19.265625 Z M 11.605469 19.265625 "/>
<path style=" stroke:none;fill-rule:nonzero;fill:rgb(0%,0%,0%);fill-opacity:1;" d="M 12.417969 18.785156 C 12.402344 18.792969 12.390625 19.179688 12.390625 19.636719 L 12.390625 20.464844 L 12.695312 20.464844 L 12.695312 19.957031 C 12.695312 19.675781 12.710938 19.449219 12.734375 19.449219 C 12.757812 19.449219 12.863281 19.597656 12.976562 19.777344 C 13.089844 19.976562 13.207031 20.109375 13.257812 20.109375 C 13.308594 20.109375 13.4375 19.96875 13.570312 19.765625 L 13.789062 19.421875 L 13.800781 19.945312 L 13.816406 20.46875 L 13.976562 20.453125 L 14.132812 20.4375 L 14.144531 19.613281 C 14.144531 19.15625 14.132812 18.773438 14.117188 18.769531 C 14.101562 18.757812 14.019531 18.761719 13.933594 18.773438 C 13.800781 18.792969 13.742188 18.859375 13.535156 19.199219 C 13.402344 19.417969 13.273438 19.601562 13.257812 19.601562 C 13.242188 19.597656 13.117188 19.414062 12.976562 19.183594 C 12.757812 18.835938 12.699219 18.769531 12.578125 18.761719 C 12.503906 18.761719 12.425781 18.769531 12.417969 18.785156 Z M 12.417969 18.785156 "/>
<path style=" stroke:none;fill-rule:nonzero;fill:rgb(0%,0%,0%);fill-opacity:1;" d="M 15.136719 18.8125 C 15.113281 18.839844 14.980469 19.183594 14.839844 19.574219 C 14.695312 19.96875 14.570312 20.328125 14.550781 20.375 C 14.519531 20.449219 14.542969 20.464844 14.691406 20.464844 C 14.84375 20.464844 14.878906 20.445312 14.925781 20.3125 C 14.976562 20.160156 14.980469 20.160156 15.335938 20.160156 C 15.691406 20.160156 15.695312 20.160156 15.746094 20.3125 C 15.792969 20.445312 15.828125 20.464844 15.980469 20.464844 C 16.113281 20.464844 16.152344 20.445312 16.132812 20.394531 C 16.117188 20.359375 15.984375 19.996094 15.84375 19.597656 C 15.695312 19.195312 15.554688 18.835938 15.523438 18.800781 C 15.46875 18.726562 15.199219 18.734375 15.136719 18.8125 Z M 15.457031 19.460938 C 15.507812 19.605469 15.566406 19.757812 15.574219 19.789062 C 15.59375 19.835938 15.535156 19.855469 15.367188 19.855469 C 15.222656 19.855469 15.132812 19.835938 15.132812 19.792969 C 15.132812 19.699219 15.300781 19.195312 15.332031 19.195312 C 15.351562 19.195312 15.40625 19.316406 15.457031 19.460938 Z M 15.457031 19.460938 "/>
<path style=" stroke:none;fill-rule:nonzero;fill:rgb(0%,0%,0%);fill-opacity:1;" d="M 16.175781 18.785156 C 16.160156 18.792969 16.148438 18.871094 16.148438 18.945312 C 16.148438 19.078125 16.164062 19.089844 16.390625 19.105469 L 16.632812 19.117188 L 16.640625 19.777344 L 16.644531 20.4375 L 16.804688 20.453125 L 16.960938 20.46875 L 16.960938 19.09375 L 17.191406 19.09375 C 17.40625 19.09375 17.417969 19.089844 17.417969 18.941406 C 17.417969 18.855469 17.402344 18.785156 17.382812 18.785156 C 17.265625 18.761719 16.1875 18.761719 16.175781 18.785156 Z M 16.175781 18.785156 "/>
<path style=" stroke:none;fill-rule:nonzero;fill:rgb(0%,0%,0%);fill-opacity:1;" d="M 17.800781 18.777344 C 17.785156 18.792969 17.773438 19.179688 17.773438 19.636719 L 17.773438 20.464844 L 18.078125 20.464844 L 18.078125 18.800781 L 17.953125 18.777344 C 17.886719 18.761719 17.8125 18.761719 17.800781 18.777344 Z M 17.800781 18.777344 "/>
<path style=" stroke:none;fill-rule:nonzero;fill:rgb(0%,0%,0%);fill-opacity:1;" d="M 18.894531 18.851562 C 18.503906 19.058594 18.332031 19.5625 18.503906 19.972656 C 18.734375 20.519531 19.527344 20.683594 19.925781 20.265625 L 20.070312 20.121094 L 19.9375 20.03125 C 19.816406 19.953125 19.800781 19.953125 19.671875 20.054688 C 19.464844 20.214844 19.140625 20.199219 18.929688 20.011719 C 18.789062 19.886719 18.765625 19.828125 18.765625 19.632812 C 18.765625 19.4375 18.789062 19.371094 18.929688 19.234375 C 19.144531 19.023438 19.46875 19.003906 19.667969 19.183594 C 19.789062 19.300781 19.800781 19.300781 19.925781 19.21875 C 19.996094 19.167969 20.058594 19.113281 20.058594 19.089844 C 20.058594 19.0625 19.96875 18.980469 19.851562 18.90625 C 19.554688 18.710938 19.191406 18.691406 18.894531 18.851562 Z M 18.894531 18.851562 "/>
<path style=" stroke:none;fill-rule:nonzero;fill:rgb(0%,0%,0%);fill-opacity:1;" d="M 20.871094 18.8125 C 20.851562 18.839844 20.71875 19.183594 20.578125 19.574219 C 20.433594 19.96875 20.308594 20.328125 20.289062 20.375 C 20.257812 20.449219 20.28125 20.464844 20.429688 20.464844 C 20.582031 20.464844 20.617188 20.445312 20.664062 20.3125 C 20.714844 20.160156 20.71875 20.160156 21.074219 20.160156 C 21.429688 20.160156 21.433594 20.160156 21.484375 20.3125 C 21.53125 20.445312 21.566406 20.464844 21.71875 20.464844 C 21.867188 20.464844 21.890625 20.449219 21.863281 20.375 C 21.847656 20.328125 21.714844 19.96875 21.570312 19.574219 C 21.429688 19.183594 21.292969 18.839844 21.265625 18.804688 C 21.210938 18.734375 20.933594 18.738281 20.871094 18.8125 Z M 21.210938 19.496094 C 21.265625 19.664062 21.308594 19.808594 21.289062 19.824219 C 21.230469 19.878906 20.871094 19.855469 20.871094 19.792969 C 20.871094 19.703125 21.039062 19.195312 21.070312 19.195312 C 21.085938 19.195312 21.152344 19.332031 21.210938 19.496094 Z M 21.210938 19.496094 "/>
</g>
</svg>
